<svg width="1440" height="900" viewBox="0 0 1440 900" fill="none" xmlns="http://www.w3.org/2000/svg">
  <rect width="1440" height="900" fill="#F4F7F4"/>
  <rect x="56" y="40" width="1328" height="820" rx="28" fill="#FFFFFF" stroke="#D7E4DE"/>
  <text x="96" y="108" font-family="Microsoft YaHei, Arial" font-size="24" font-weight="700" fill="#537A70">学习提问诊断 Agent</text>
  <text x="96" y="176" font-family="Microsoft YaHei, Arial" font-size="72" font-weight="800" fill="#183B34">问得更好</text>
  <text x="96" y="222" font-family="Microsoft YaHei, Arial" font-size="28" font-weight="700" fill="#425F59">把模糊的小问题，变成值得问老师的好问题。</text>
  <rect x="1040" y="88" width="250" height="44" rx="22" fill="#F8FCFA" stroke="#D6E4DE"/>
  <circle cx="1064" cy="110" r="7" fill="#2F8F72"/>
  <text x="1080" y="118" font-family="Microsoft YaHei, Arial" font-size="18" font-weight="700" fill="#3F6259">后端已连接 · Mock 模式</text>

  <rect x="96" y="280" width="270" height="500" rx="12" fill="#FBFDFC" stroke="#D7E4DE"/>
  <text x="120" y="326" font-family="Microsoft YaHei, Arial" font-size="24" font-weight="800" fill="#24433D">今日复习</text>
  <rect x="120" y="350" width="66" height="38" rx="8" fill="#EEF7F2"/>
  <text x="136" y="374" font-family="Microsoft YaHei, Arial" font-size="15" font-weight="800" fill="#426B62">待 3</text>
  <rect x="196" y="350" width="66" height="38" rx="8" fill="#FFF8F1"/>
  <text x="211" y="374" font-family="Microsoft YaHei, Arial" font-size="15" font-weight="800" fill="#A5532F">逾 1</text>
  <rect x="272" y="350" width="66" height="38" rx="8" fill="#EEF7F2"/>
  <text x="286" y="374" font-family="Microsoft YaHei, Arial" font-size="15" font-weight="800" fill="#426B62">完 2</text>
  <rect x="120" y="414" width="222" height="118" rx="10" fill="#FFF" stroke="#E1EAE6"/>
  <text x="138" y="446" font-family="Microsoft YaHei, Arial" font-size="16" font-weight="700" fill="#2F6F62">高等数学 / 链式法则</text>
  <text x="138" y="478" font-family="Microsoft YaHei, Arial" font-size="18" font-weight="800" fill="#2D403B">整理适用条件与反例</text>
  <text x="138" y="510" font-family="Microsoft YaHei, Arial" font-size="15" font-weight="700" fill="#A5532F">今天到期</text>
  <rect x="120" y="552" width="222" height="118" rx="10" fill="#F4FAF7" stroke="#CFE5DA"/>
  <text x="138" y="584" font-family="Microsoft YaHei, Arial" font-size="16" font-weight="700" fill="#2F6F62">数据结构 / 递归</text>
  <text x="138" y="616" font-family="Microsoft YaHei, Arial" font-size="18" font-weight="800" fill="#2D403B">复盘 base case</text>
  <text x="138" y="648" font-family="Microsoft YaHei, Arial" font-size="15" font-weight="700" fill="#547069">今日已复习</text>

  <rect x="396" y="280" width="360" height="500" rx="12" fill="#FBFDFC" stroke="#D7E4DE"/>
  <text x="424" y="326" font-family="Microsoft YaHei, Arial" font-size="24" font-weight="800" fill="#24433D">输入学习疑点</text>
  <rect x="424" y="350" width="304" height="76" rx="10" fill="#EEF7F2" stroke="#D9E8E1"/>
  <text x="444" y="382" font-family="Microsoft YaHei, Arial" font-size="18" font-weight="700" fill="#46645D">可以直接写“不懂这一步为什么这样变”</text>
  <rect x="424" y="452" width="304" height="48" rx="8" fill="#FFFFFF" stroke="#CBD9D4"/>
  <text x="444" y="483" font-family="Microsoft YaHei, Arial" font-size="17" fill="#6F817D">课程名称：高等数学</text>
  <rect x="424" y="520" width="304" height="48" rx="8" fill="#FFFFFF" stroke="#CBD9D4"/>
  <text x="444" y="551" font-family="Microsoft YaHei, Arial" font-size="17" fill="#6F817D">当前章节：链式法则</text>
  <rect x="424" y="588" width="304" height="96" rx="8" fill="#FFFFFF" stroke="#CBD9D4"/>
  <text x="444" y="622" font-family="Microsoft YaHei, Arial" font-size="17" fill="#33423E">为什么这里要用链式法则？</text>
  <rect x="424" y="708" width="304" height="48" rx="8" fill="#2F6F62"/>
  <text x="536" y="739" font-family="Microsoft YaHei, Arial" font-size="18" font-weight="800" fill="#FFFFFF">开始诊断</text>

  <rect x="786" y="280" width="500" height="500" rx="12" fill="#FBFDFC" stroke="#D7E4DE"/>
  <text x="816" y="326" font-family="Microsoft YaHei, Arial" font-size="24" font-weight="800" fill="#24433D">诊断结果预览</text>
  <rect x="816" y="352" width="196" height="34" rx="17" fill="#FBFDFC" stroke="#B9D2CA"/>
  <text x="846" y="375" font-family="Microsoft YaHei, Arial" font-size="15" font-weight="800" fill="#315F55">方法目的问题</text>
  <rect x="816" y="412" width="210" height="130" rx="10" fill="#FFFFFF" stroke="#DDE8E3"/>
  <text x="838" y="446" font-family="Microsoft YaHei, Arial" font-size="18" font-weight="800" fill="#24433D">知识缺口</text>
  <text x="838" y="482" font-family="Microsoft YaHei, Arial" font-size="16" fill="#4E5F5B">方法的适用条件、使用目的</text>
  <text x="838" y="512" font-family="Microsoft YaHei, Arial" font-size="16" fill="#4E5F5B">以及边界判断。</text>
  <rect x="1050" y="412" width="210" height="130" rx="10" fill="#FFF8F1" stroke="#E8CDBA"/>
  <text x="1072" y="446" font-family="Microsoft YaHei, Arial" font-size="18" font-weight="800" fill="#854A2E">推荐问法</text>
  <text x="1072" y="482" font-family="Microsoft YaHei, Arial" font-size="16" fill="#4E5F5B">老师，如何判断这里</text>
  <text x="1072" y="512" font-family="Microsoft YaHei, Arial" font-size="16" fill="#4E5F5B">应该使用这个方法？</text>
  <rect x="816" y="572" width="444" height="150" rx="10" fill="#FFF8F1" stroke="#E8CDBA"/>
  <text x="838" y="608" font-family="Microsoft YaHei, Arial" font-size="20" font-weight="800" fill="#854A2E">学习卡片 + 复习闭环</text>
  <text x="838" y="648" font-family="Microsoft YaHei, Arial" font-size="17" fill="#4E5F5B">错因标签、自测题、下次复习日期自动生成</text>
  <text x="838" y="688" font-family="Microsoft YaHei, Arial" font-size="17" fill="#4E5F5B">从一次提问沉淀为长期复习任务。</text>
</svg>
